<svg width="12" height="12" viewBox="0 0 12 12" fill="none" xmlns="http://www.w3.org/2000/svg">
<path d="M5.17595 7.15636C4.97931 7.36582 4.72041 7.47055 4.39924 7.47055C4.19605 7.47055 4.01252 7.42145 3.84866 7.32327C3.68479 7.22509 3.55698 7.09091 3.46522 6.92073C3.37345 6.75055 3.32757 6.55745 3.32757 6.34145C3.32757 6.11891 3.37345 5.92255 3.46522 5.75236C3.56354 5.58218 3.69135 5.45127 3.84866 5.35964C4.01252 5.26146 4.19932 5.21236 4.40907 5.21236C4.61881 5.21236 4.80234 5.26146 4.95965 5.35964C5.12351 5.45127 5.24805 5.58218 5.33325 5.75236C5.42502 5.92255 5.4709 6.11891 5.4709 6.34145C5.4709 6.66873 5.37258 6.94036 5.17595 7.15636Z" fill="#0652CC"/>
<path fill-rule="evenodd" clip-rule="evenodd" d="M6 12C9.31371 12 12 9.31371 12 6C12 2.68629 9.31371 0 6 0C2.68629 0 0 2.68629 0 6C0 9.31371 2.68629 12 6 12ZM2.91464 8.50146C3.26203 8.71745 3.6553 8.82545 4.09445 8.82545C4.41562 8.82545 4.7073 8.76327 4.96948 8.63891C5.13883 8.55858 5.28631 8.45913 5.41191 8.34056V8.72727H6.88667V3.95564H5.41191V4.35189C5.28228 4.22816 5.13153 4.12553 4.95965 4.044C4.70402 3.91964 4.41562 3.85745 4.09445 3.85745C3.6553 3.85745 3.26203 3.96545 2.91464 4.18145C2.5738 4.39745 2.30179 4.692 2.0986 5.06509C1.90197 5.43818 1.80365 5.86364 1.80365 6.34145C1.80365 6.81927 1.90197 7.24473 2.0986 7.61782C2.30179 7.99091 2.5738 8.28545 2.91464 8.50146ZM8.17195 8.53091C8.37514 8.74036 8.63076 8.84509 8.93883 8.84509C9.24689 8.84509 9.49924 8.74036 9.69587 8.53091C9.89906 8.32146 10.0007 8.06618 10.0007 7.76509C10.0007 7.45745 9.89906 7.19891 9.69587 6.98945C9.49924 6.78 9.24689 6.67527 8.93883 6.67527C8.63076 6.67527 8.37514 6.78 8.17195 6.98945C7.96876 7.19891 7.86716 7.45745 7.86716 7.76509C7.86716 8.06618 7.96876 8.32146 8.17195 8.53091Z" fill="#0652CC"/>
</svg>
